<svg width="9" height="14" viewBox="0 0 9 14" fill="none" xmlns="http://www.w3.org/2000/svg">
<path d="M0.792802 13.707C0.605321 13.5193 0.5 13.2647 0.5 12.9993C0.5 12.7339 0.605321 12.4794 0.792802 12.2917L6.08609 6.99396L0.792802 1.69623C0.610634 1.50746 0.509835 1.25463 0.512113 0.992197C0.514392 0.729766 0.619566 0.478729 0.804984 0.293155C0.990402 0.107581 1.24123 0.00231829 1.50344 3.78363e-05C1.76565 -0.00224262 2.01827 0.0986423 2.20688 0.280963L8.2072 6.28633C8.39468 6.47402 8.5 6.72856 8.5 6.99396C8.5 7.25936 8.39468 7.51389 8.2072 7.70159L2.20688 13.707C2.01934 13.8946 1.76502 14 1.49984 14C1.23466 14 0.98034 13.8946 0.792802 13.707Z" fill="#EDEDED"/>
</svg>
