<svg width="6" height="12" viewBox="0 0 6 12" fill="none" xmlns="http://www.w3.org/2000/svg">
<path d="M0.219602 11.7488C0.0789909 11.5879 0 11.3698 0 11.1423C0 10.9148 0.0789909 10.6966 0.219602 10.5357L4.18956 5.99482L0.219602 1.45391C0.0829758 1.2921 0.00737604 1.0754 0.00908495 0.850454C0.0107939 0.625513 0.0896746 0.410339 0.228738 0.251276C0.367802 0.0922127 0.555921 0.00198711 0.752579 3.24311e-05C0.949237 -0.00192225 1.1387 0.0845505 1.28016 0.240826L5.7804 5.38828C5.92101 5.54916 6 5.76733 6 5.99482C6 6.22231 5.92101 6.44048 5.7804 6.60136L1.28016 11.7488C1.1395 11.9096 0.948764 12 0.74988 12C0.550996 12 0.360255 11.9096 0.219602 11.7488Z" fill="#07011D"/>
</svg>
