<svg width="8" height="14" viewBox="0 0 8 14" fill="none" xmlns="http://www.w3.org/2000/svg">
<path d="M0.292802 13.707C0.105321 13.5193 0 13.2647 0 12.9993C0 12.7339 0.105321 12.4794 0.292802 12.2917L5.58609 6.99396L0.292802 1.69623C0.110634 1.50746 0.00983472 1.25463 0.0121133 0.992197C0.0143918 0.729766 0.119566 0.478729 0.304984 0.293155C0.490402 0.107581 0.741228 0.00231829 1.00344 3.78363e-05C1.26565 -0.00224262 1.51827 0.0986423 1.70688 0.280963L7.7072 6.28633C7.89468 6.47402 8 6.72856 8 6.99396C8 7.25936 7.89468 7.51389 7.7072 7.70159L1.70688 13.707C1.51934 13.8946 1.26502 14 0.99984 14C0.734661 14 0.48034 13.8946 0.292802 13.707Z" fill="current"/>
</svg>
