<svg width="6" height="13" viewBox="0 0 6 13" fill="none" xmlns="http://www.w3.org/2000/svg">
<path d="M0.219602 12.2488C0.0789909 12.0879 0 11.8698 0 11.6423C0 11.4148 0.0789909 11.1966 0.219602 11.0357L4.18956 6.49482L0.219602 1.95391C0.0829758 1.7921 0.00737604 1.5754 0.00908495 1.35045C0.0107939 1.12551 0.0896746 0.910339 0.228738 0.751276C0.367802 0.592213 0.555921 0.501987 0.752579 0.500032C0.949237 0.498078 1.1387 0.584551 1.28016 0.740826L5.7804 5.88828C5.92101 6.04916 6 6.26733 6 6.49482C6 6.72231 5.92101 6.94048 5.7804 7.10136L1.28016 12.2488C1.1395 12.4096 0.948764 12.5 0.74988 12.5C0.550996 12.5 0.360255 12.4096 0.219602 12.2488Z" fill="#646C78"/>
</svg>
