<svg width="30" height="16" viewBox="0 0 30 16" fill="none" xmlns="http://www.w3.org/2000/svg">
<g id="Property 1=goright" clip-path="url(#clip0_37_164)">
<path id="Vector" d="M22.8477 0H1.5894C0.711258 0 0 0.70716 0 1.58025V13.4321C0 13.8686 0.355629 14.2222 0.794702 14.2222H4.29735C4.63113 15.2533 5.60464 16 6.75497 16C7.9053 16 8.87881 15.2533 9.21258 14.2222H20.9861C21.3199 15.2533 22.2934 16 23.4437 16C24.594 16 25.5675 15.2533 25.9013 14.2222H29.2053C29.6444 14.2222 30 13.8686 30 13.4321V7.11111C30 3.1842 26.7974 0 22.8477 0ZM7.74834 6.91358C7.74834 7.13086 7.56954 7.30864 7.35099 7.30864H2.38411C2.16556 7.30864 1.98676 7.13086 1.98676 6.91358V3.55556C1.98676 3.33827 2.16556 3.16049 2.38411 3.16049H7.35099C7.56954 3.16049 7.74834 3.33827 7.74834 3.55556V6.91358ZM14.3046 6.91358C14.3046 7.13086 14.1258 7.30864 13.9073 7.30864H8.9404C8.72185 7.30864 8.54305 7.13086 8.54305 6.91358V3.55556C8.54305 3.33827 8.72185 3.16049 8.9404 3.16049H13.9073C14.1258 3.16049 14.3046 3.33827 14.3046 3.55556V6.91358ZM20.4636 7.30864H15.4967C15.2781 7.30864 15.0993 7.13086 15.0993 6.91358V3.55556C15.0993 3.33827 15.2781 3.16049 15.4967 3.16049H20.4636C20.6821 3.16049 20.8609 3.33827 20.8609 3.55556V6.91358C20.8609 7.13086 20.6821 7.30864 20.4636 7.30864ZM27.8901 6.71605C27.8921 6.76543 27.8901 6.91358 27.8901 6.91358C27.8901 7.13086 27.7113 7.30864 27.4927 7.30864H22.053C21.8344 7.30864 21.6556 7.13086 21.6556 6.91358V3.55556C21.6556 3.33827 21.8344 3.16049 22.053 3.16049H25.0331C27.0199 3.16049 27.8146 5.33333 27.8901 6.71605Z" fill="current"/>
</g>
<defs>
<clipPath id="clip0_37_164">
<rect width="30" height="16" fill="white"/>
</clipPath>
</defs>
</svg>
