<svg width="30" height="16" viewBox="0 0 30 16" fill="none" xmlns="http://www.w3.org/2000/svg">
<g id="Property 1=goleft" clip-path="url(#clip0_37_173)">
<path id="Vector" d="M0 7.11111V13.4321C0 13.8686 0.355629 14.2222 0.794702 14.2222H4.09868C4.43245 15.2533 5.40596 16 6.55629 16C7.70662 16 8.68013 15.2533 9.01391 14.2222H20.7874C21.1212 15.2533 22.0947 16 23.245 16C24.3954 16 25.3689 15.2533 25.7026 14.2222H29.2053C29.6444 14.2222 30 13.8686 30 13.4321V1.58025C30 0.70716 29.2887 0 28.4106 0H7.15232C3.20265 0 0 3.1842 0 7.11111ZM22.2517 3.55556C22.2517 3.33827 22.4305 3.16049 22.649 3.16049H27.6159C27.8344 3.16049 28.0132 3.33827 28.0132 3.55556V6.91358C28.0132 7.13086 27.8344 7.30864 27.6159 7.30864H22.649C22.4305 7.30864 22.2517 7.13086 22.2517 6.91358V3.55556ZM15.6954 3.55556C15.6954 3.33827 15.8742 3.16049 16.0927 3.16049H21.0596C21.2781 3.16049 21.457 3.33827 21.457 3.55556V6.91358C21.457 7.13086 21.2781 7.30864 21.0596 7.30864H16.0927C15.8742 7.30864 15.6954 7.13086 15.6954 6.91358V3.55556ZM9.13907 6.91358V3.55556C9.13907 3.33827 9.31788 3.16049 9.53642 3.16049H14.5033C14.7219 3.16049 14.9007 3.33827 14.9007 3.55556V6.91358C14.9007 7.13086 14.7219 7.30864 14.5033 7.30864H9.53642C9.31788 7.30864 9.13907 7.13086 9.13907 6.91358ZM4.96689 3.16049H7.94702C8.16556 3.16049 8.34437 3.33827 8.34437 3.55556V6.91358C8.34437 7.13086 8.16556 7.30864 7.94702 7.30864H2.50728C2.28874 7.30864 2.10993 7.13086 2.10993 6.91358C2.10993 6.91358 2.10795 6.76543 2.10993 6.71605C2.18543 5.33333 2.98013 3.16049 4.96689 3.16049Z" fill="#07011D"/>
</g>
<defs>
<clipPath id="clip0_37_173">
<rect width="30" height="16" fill="white"/>
</clipPath>
</defs>
</svg>
