<svg width="21" height="20" viewBox="0 0 21 20" fill="none" xmlns="http://www.w3.org/2000/svg">
<path d="M5.31866 4.34315C3.81836 5.84344 2.97551 7.87827 2.97551 10C2.97551 12.1217 3.81836 14.1566 5.31866 15.6569C6.81895 17.1571 8.85378 18 10.9755 18C13.0972 18 15.1321 17.1571 16.6324 15.6569C18.1327 14.1566 18.9755 12.1217 18.9755 10C18.9755 7.87827 18.1327 5.84344 16.6324 4.34315C15.1321 2.84285 13.0972 2 10.9755 2C8.85378 2 6.81895 2.84285 5.31866 4.34315ZM3.90444 17.0711C-0.000908804 13.1657 -0.000908804 6.83428 3.90444 2.92893C7.80979 -0.976418 14.1412 -0.976418 18.0466 2.92893C21.9519 6.83428 21.9519 13.1657 18.0466 17.0711C14.1412 20.9764 7.80979 20.9764 3.90444 17.0711ZM7.43998 6.46447C7.62751 6.27693 7.88187 6.17157 8.14708 6.17157C8.4123 6.17157 8.66665 6.27693 8.85419 6.46447L10.9755 8.58579L13.0968 6.46447C13.2844 6.27693 13.5387 6.17157 13.8039 6.17157C14.0692 6.17157 14.3235 6.27693 14.511 6.46447C14.6986 6.652 14.8039 6.90636 14.8039 7.17157C14.8039 7.43679 14.6986 7.69114 14.511 7.87868L12.3897 10L14.511 12.1213C14.6986 12.3089 14.8039 12.5632 14.8039 12.8284C14.8039 13.0936 14.6986 13.348 14.511 13.5355C14.3235 13.7231 14.0692 13.8284 13.8039 13.8284C13.5387 13.8284 13.2844 13.7231 13.0968 13.5355L10.9755 11.4142L8.85419 13.5355C8.66665 13.7231 8.4123 13.8284 8.14708 13.8284C7.88187 13.8284 7.62751 13.7231 7.43998 13.5355C7.25244 13.348 7.14708 13.0936 7.14708 12.8284C7.14708 12.5632 7.25244 12.3089 7.43998 12.1213L9.5613 10L7.43998 7.87868C7.25244 7.69114 7.14708 7.43679 7.14708 7.17157C7.14708 6.90636 7.25244 6.652 7.43998 6.46447Z" fill="#07011D"/>
</svg>
