<svg width="28" height="28" viewBox="0 0 28 28" fill="none" xmlns="http://www.w3.org/2000/svg">
<path id="Vector" d="M4.2 14C4.2 13.6287 4.0525 13.2726 3.78995 13.0101C3.5274 12.7475 3.1713 12.6 2.8 12.6H1.4C1.0287 12.6 0.672601 12.7475 0.41005 13.0101C0.1475 13.2726 0 13.6287 0 14C0 14.3713 0.1475 14.7274 0.41005 14.9899C0.672601 15.2525 1.0287 15.4 1.4 15.4H2.8C3.1713 15.4 3.5274 15.2525 3.78995 14.9899C4.0525 14.7274 4.2 14.3713 4.2 14ZM5.096 21L4.102 21.994C3.84125 22.2563 3.69489 22.6111 3.69489 22.981C3.69489 23.3509 3.84125 23.7057 4.102 23.968C4.36431 24.2288 4.71914 24.3751 5.089 24.3751C5.45886 24.3751 5.81369 24.2288 6.076 23.968L7.07 22.974C7.29936 22.7062 7.41921 22.3617 7.4056 22.0093C7.39199 21.657 7.24592 21.3227 6.99659 21.0734C6.74726 20.8241 6.41302 20.678 6.06067 20.6644C5.70833 20.6508 5.36382 20.7706 5.096 21ZM14 4.2C14.3713 4.2 14.7274 4.0525 14.9899 3.78995C15.2525 3.5274 15.4 3.1713 15.4 2.8V1.4C15.4 1.0287 15.2525 0.672601 14.9899 0.41005C14.7274 0.1475 14.3713 0 14 0C13.6287 0 13.2726 0.1475 13.0101 0.41005C12.7475 0.672601 12.6 1.0287 12.6 1.4V2.8C12.6 3.1713 12.7475 3.5274 13.0101 3.78995C13.2726 4.0525 13.6287 4.2 14 4.2ZM21.924 7.476C22.2913 7.47445 22.6432 7.32864 22.904 7.07L23.898 6.076C24.0446 5.95049 24.1636 5.79605 24.2476 5.62236C24.3316 5.44867 24.3789 5.25948 24.3863 5.06667C24.3938 4.87387 24.3613 4.6816 24.2909 4.50195C24.2205 4.32229 24.1137 4.15913 23.9773 4.02269C23.8409 3.88625 23.6777 3.77949 23.4981 3.70911C23.3184 3.63872 23.1261 3.60623 22.9333 3.61368C22.7405 3.62113 22.5513 3.66835 22.3776 3.75238C22.204 3.83642 22.0495 3.95545 21.924 4.102L21 5.096C20.7392 5.35831 20.5929 5.71314 20.5929 6.083C20.5929 6.45286 20.7392 6.80769 21 7.07C21.2468 7.31551 21.5762 7.46025 21.924 7.476ZM5.124 7.07C5.38476 7.32864 5.73672 7.47445 6.104 7.476C6.28825 7.47707 6.4709 7.44175 6.64147 7.37208C6.81204 7.30241 6.96718 7.19975 7.098 7.07C7.35875 6.80769 7.50511 6.45286 7.50511 6.083C7.50511 5.71314 7.35875 5.35831 7.098 5.096L6.104 4.102C5.97439 3.97055 5.82015 3.86591 5.65009 3.79406C5.48004 3.72222 5.2975 3.68457 5.1129 3.68327C4.9283 3.68197 4.74524 3.71704 4.5742 3.78649C4.40315 3.85593 4.24745 3.95839 4.116 4.088C3.98455 4.21761 3.87991 4.37185 3.80806 4.5419C3.73622 4.71196 3.69857 4.8945 3.69727 5.0791C3.69465 5.45192 3.84023 5.81052 4.102 6.076L5.124 7.07ZM26.6 12.6H25.2C24.8287 12.6 24.4726 12.7475 24.21 13.0101C23.9475 13.2726 23.8 13.6287 23.8 14C23.8 14.3713 23.9475 14.7274 24.21 14.9899C24.4726 15.2525 24.8287 15.4 25.2 15.4H26.6C26.9713 15.4 27.3274 15.2525 27.59 14.9899C27.8525 14.7274 28 14.3713 28 14C28 13.6287 27.8525 13.2726 27.59 13.0101C27.3274 12.7475 26.9713 12.6 26.6 12.6ZM22.904 21C22.638 20.8521 22.3311 20.7948 22.0296 20.837C21.7282 20.8791 21.4487 21.0183 21.2335 21.2335C21.0183 21.4487 20.8791 21.7282 20.837 22.0296C20.7948 22.3311 20.8521 22.638 21 22.904L21.994 23.898C22.2563 24.1588 22.6111 24.3051 22.981 24.3051C23.3509 24.3051 23.7057 24.1588 23.968 23.898C24.2288 23.6357 24.3751 23.2809 24.3751 22.911C24.3751 22.5411 24.2288 22.1863 23.968 21.924L22.904 21ZM14 6.3C12.4771 6.3 10.9884 6.7516 9.72211 7.59768C8.45585 8.44377 7.46892 9.64635 6.88613 11.0533C6.30333 12.4603 6.15085 14.0085 6.44795 15.5022C6.74506 16.9958 7.47841 18.3679 8.55528 19.4447C9.63214 20.5216 11.0042 21.2549 12.4978 21.552C13.9915 21.8492 15.5397 21.6967 16.9467 21.1139C18.3537 20.5311 19.5562 19.5441 20.4023 18.2779C21.2484 17.0116 21.7 15.5229 21.7 14C21.6963 11.959 20.8839 10.0026 19.4406 8.55937C17.9974 7.11614 16.041 6.3037 14 6.3ZM14 18.9C13.0309 18.9 12.0835 18.6126 11.2777 18.0742C10.4719 17.5358 9.84386 16.7705 9.47299 15.8751C9.10212 14.9798 9.00508 13.9946 9.19415 13.0441C9.38322 12.0935 9.8499 11.2205 10.5352 10.5352C11.2205 9.8499 12.0935 9.38322 13.0441 9.19415C13.9946 9.00508 14.9798 9.10212 15.8751 9.47299C16.7705 9.84386 17.5358 10.4719 18.0742 11.2777C18.6126 12.0835 18.9 13.0309 18.9 14C18.9 15.2996 18.3838 16.5459 17.4648 17.4648C16.5459 18.3838 15.2996 18.9 14 18.9ZM14 23.8C13.6287 23.8 13.2726 23.9475 13.0101 24.21C12.7475 24.4726 12.6 24.8287 12.6 25.2V26.6C12.6 26.9713 12.7475 27.3274 13.0101 27.59C13.2726 27.8525 13.6287 28 14 28C14.3713 28 14.7274 27.8525 14.9899 27.59C15.2525 27.3274 15.4 26.9713 15.4 26.6V25.2C15.4 24.8287 15.2525 24.4726 14.9899 24.21C14.7274 23.9475 14.3713 23.8 14 23.8Z" fill="#80DED0"/>
</svg>
