<svg width="12" height="10" viewBox="0 0 12 10" fill="none" xmlns="http://www.w3.org/2000/svg">
<g id="Property 1=ic_heart">
<path id="heart vector" d="M6 0.867946C5.30188 0.276871 4.38696 -0.0335193 3.45007 0.00287412C2.51318 0.0392675 1.62836 0.419569 0.984021 1.06279C0.339685 1.70601 -0.0132485 2.56133 0.000380536 3.4466C0.0140096 4.33187 0.393124 5.17714 1.05699 5.80241L5.15208 9.66845C5.37698 9.88074 5.68198 10 6 10C6.31802 10 6.62301 9.88074 6.84792 9.66845L10.943 5.80241C11.6069 5.17714 11.986 4.33187 11.9996 3.4466C12.0132 2.56133 11.6603 1.70601 11.016 1.06279C10.3716 0.419569 9.48681 0.0392675 8.54993 0.00287412C7.61304 -0.0335193 6.69812 0.276871 6 0.867946ZM5.2972 1.79878L5.57604 2.0615C5.68849 2.16765 5.84099 2.22728 6 2.22728C6.15901 2.22728 6.31151 2.16765 6.42396 2.0615L6.7028 1.79878C6.92407 1.58247 7.18875 1.40993 7.48139 1.29124C7.77404 1.17254 8.08879 1.11006 8.40728 1.10745C8.72577 1.10484 9.04162 1.16214 9.33641 1.27602C9.63119 1.38989 9.89901 1.55806 10.1242 1.77071C10.3494 1.98336 10.5275 2.23623 10.6481 2.51457C10.7688 2.79291 10.8294 3.09114 10.8267 3.39186C10.8239 3.69258 10.7577 3.98977 10.632 4.26608C10.5063 4.5424 10.3236 4.79231 10.0945 5.00123L6 8.86784L1.90551 5.00123C1.46858 4.57408 1.22681 4.00199 1.23227 3.40816C1.23774 2.81433 1.49 2.24629 1.93473 1.82637C2.37946 1.40646 2.98107 1.16827 3.60999 1.16311C4.2389 1.15795 4.84481 1.38623 5.2972 1.79878Z" fill="#80DED0"/>
</g>
</svg>
