<svg width="12" height="10" viewBox="0 0 12 10" fill="none" xmlns="http://www.w3.org/2000/svg">
<path d="M6 0.867946C5.30188 0.276871 4.38696 -0.0335193 3.45007 0.00287412C2.51318 0.0392675 1.62836 0.419569 0.984021 1.06279C0.339685 1.70601 -0.0132485 2.56133 0.000380536 3.4466C0.0140096 4.33187 0.393124 5.17714 1.05699 5.80241L5.15208 9.66845C5.37698 9.88074 5.68198 10 6 10C6.31802 10 6.62301 9.88074 6.84792 9.66845L10.943 5.80241C11.6069 5.17714 11.986 4.33187 11.9996 3.4466C12.0132 2.56133 11.6603 1.70601 11.016 1.06279C10.3716 0.419569 9.48681 0.0392675 8.54993 0.00287412C7.61304 -0.0335193 6.69812 0.276871 6 0.867946Z" fill="#80DED0"/>
</svg>
