<svg width="120" height="60" viewBox="0 0 120 60" fill="none" xmlns="http://www.w3.org/2000/svg">
<g clip-path="url(#clip0_57_538)">
<path d="M84.8919 11.487C84.8919 10.9526 84.4664 10.5198 83.9411 10.5198H77.3354C76.8101 10.5198 76.3846 10.9526 76.3846 11.487V31.9998C76.3846 37.2658 75.6668 39.5796 72.6932 39.5796C69.7195 39.5796 68.9518 37.2658 68.9518 31.9998V11.487C68.9518 10.9526 68.5263 10.5198 68.001 10.5198H61.3953C60.87 10.5198 60.4445 10.9526 60.4445 11.487V31.9998C60.4445 42.5826 65.9805 47.0145 72.6955 47.0145C79.4105 47.0145 84.8942 42.5826 84.8942 31.9466V11.487H84.8919Z" fill="#07011D"/>
<path d="M29.729 24.2845H28.0651C27.54 24.2845 27.1143 24.7175 27.1143 25.2516V30.5128C27.1143 31.0469 27.54 31.4799 28.0651 31.4799H29.729C30.2541 31.4799 30.6798 31.0469 30.6798 30.5128V25.2516C30.6798 24.7175 30.2541 24.2845 29.729 24.2845Z" fill="#07011D"/>
<path d="M29.7053 39.2992H18.985C18.7236 39.2992 18.5096 39.0816 18.5096 38.8156V31.9635C18.5096 31.6975 18.7236 31.4799 18.985 31.4799H24.502C25.0273 31.4799 25.4528 31.0471 25.4528 30.5128V25.2516C25.4528 24.7173 25.0273 24.2845 24.502 24.2845H18.985C18.7236 24.2845 18.5096 24.0669 18.5096 23.8009V20.4716C18.5096 18.9484 19.7219 17.7153 21.2194 17.7153H29.7053C30.2306 17.7153 30.656 17.2825 30.656 16.7481V11.487C30.656 10.9526 30.2306 10.5198 29.7053 10.5198H18.5572C13.8317 10.5198 10 14.4174 10 19.224V45.5275C10 46.0618 10.4255 46.4946 10.9508 46.4946H29.7053C30.2306 46.4946 30.656 46.0618 30.656 45.5275V40.2663C30.656 39.732 30.2306 39.2992 29.7053 39.2992Z" fill="#07011D"/>
<path d="M42.667 23.7478V18.1457C42.667 17.8797 42.8809 17.6621 43.1424 17.6621H42.9047C42.6432 17.6621 42.4293 17.8797 42.4293 18.1457V23.7478C42.4293 24.0161 42.6432 24.2313 42.9047 24.2313H43.1424C42.8809 24.2313 42.667 24.0161 42.667 23.7478Z" fill="#07011D"/>
<path d="M53.4823 27.5679C55.429 25.9528 56.7102 23.7623 56.7102 20.0606C56.7102 13.4913 52.251 10.5198 45.1272 10.5198H35.1105C34.5852 10.5198 34.1597 10.9526 34.1597 11.487V45.5275C34.1597 45.675 34.1906 45.8128 34.2501 45.9361C34.3641 49.3694 37.1381 52 40.5443 52C43.7271 52 46.3584 49.6015 46.7816 46.4825C54.3642 46.2117 57.7371 41.7291 57.7371 36.1705C57.7371 31.7386 55.9948 29.1854 53.4823 27.5679ZM42.4293 18.1456C42.4293 17.8797 42.6432 17.6621 42.9047 17.6621H44.0504C47.6896 17.6621 48.1507 19.0185 48.1507 21.0519C48.1507 22.9281 47.3306 24.2313 44.7183 24.2313H42.9047C42.6432 24.2313 42.4293 24.0161 42.4293 23.7477V18.1456ZM45.1272 39.2992H43.1424C42.8809 39.2992 42.667 39.0816 42.667 38.8156V31.9103C42.667 31.6444 42.8809 31.4268 43.1424 31.4268H44.6161C47.9986 31.4268 49.1253 32.73 49.1253 35.3364C49.1253 37.7348 48.0485 39.2992 45.1272 39.2992Z" fill="#07011D"/>
<path d="M101.032 24.3208C97.4424 22.9668 96.2634 22.459 96.2634 20.3217C96.2634 18.4962 97.0834 17.193 99.237 17.193L106.772 17.239L107.856 17.2462C108.381 17.2462 108.812 16.8134 108.812 16.2791V10.9671C108.812 10.4328 108.386 10 107.861 10H98.7236C91.2931 10 87.7561 14.4295 87.7561 20.3749C87.7561 26.3203 90.2662 29.1177 96.4179 31.5162C100.62 33.1845 101.493 34.1226 101.493 36.2092C101.493 36.2576 101.493 36.3083 101.488 36.3615C101.414 37.8799 100.171 39.0743 98.676 39.1323C97.9368 39.1614 97.2403 39.1855 97.0002 39.1855H88.203C87.6777 39.1855 87.2522 39.6183 87.2522 40.1527V45.5928C87.2522 49.1325 90.0713 52 93.5512 52C96.5819 52 99.1134 49.824 99.7124 46.9226H101.276C107.219 46.9226 110 41.6034 110 36.2745C110 30.1235 107.694 26.8232 101.032 24.3208ZM96.8505 46.9226C96.8909 46.9153 96.9337 46.9105 96.9788 46.9153C97.0074 46.9177 97.0383 46.9202 97.0692 46.9226H96.8505Z" fill="#07011D"/>
<path d="M97.0691 46.9224H96.8505C96.8909 46.9153 96.9337 46.9106 96.9788 46.9153C97.0073 46.9177 97.0382 46.9201 97.0691 46.9224Z" fill="#07011D"/>
<path d="M97.0691 46.9224H96.8505C96.8909 46.9153 96.9337 46.9106 96.9788 46.9153C97.0073 46.9177 97.0382 46.9201 97.0691 46.9224Z" fill="#07011D"/>
<path d="M97.0691 46.9224H96.8505C96.8909 46.9153 96.9337 46.9106 96.9788 46.9153C97.0073 46.9177 97.0382 46.9201 97.0691 46.9224Z" fill="#07011D"/>
</g>
<defs>
<clipPath id="clip0_57_538">
<rect width="100" height="42" fill="white" transform="translate(10 10)"/>
</clipPath>
</defs>
</svg>
