<svg width="120" height="60" viewBox="0 0 120 60" fill="none" xmlns="http://www.w3.org/2000/svg">
<g clip-path="url(#clip0_57_2059)">
<path d="M84.8919 11.4869C84.8919 10.9526 84.4664 10.5198 83.9411 10.5198H77.3354C76.8101 10.5198 76.3846 10.9526 76.3846 11.4869V31.9997C76.3846 37.2657 75.6668 39.5796 72.6932 39.5796C69.7195 39.5796 68.9518 37.2657 68.9518 31.9997V11.4869C68.9518 10.9526 68.5263 10.5198 68.001 10.5198H61.3953C60.87 10.5198 60.4445 10.9526 60.4445 11.4869V31.9997C60.4445 42.5825 65.9805 47.0144 72.6955 47.0144C79.4105 47.0144 84.8942 42.5825 84.8942 31.9465V11.4869H84.8919Z" fill="#EDEDED"/>
<path d="M29.7291 24.2845H28.0652C27.5401 24.2845 27.1144 24.7175 27.1144 25.2517V30.5129C27.1144 31.047 27.5401 31.48 28.0652 31.48H29.7291C30.2542 31.48 30.6799 31.047 30.6799 30.5129V25.2517C30.6799 24.7175 30.2542 24.2845 29.7291 24.2845Z" fill="#EDEDED"/>
<path d="M29.7053 39.2991H18.985C18.7236 39.2991 18.5096 39.0815 18.5096 38.8156V31.9634C18.5096 31.6975 18.7236 31.4799 18.985 31.4799H24.502C25.0273 31.4799 25.4528 31.0471 25.4528 30.5127V25.2516C25.4528 24.7172 25.0273 24.2844 24.502 24.2844H18.985C18.7236 24.2844 18.5096 24.0668 18.5096 23.8009V20.4715C18.5096 18.9483 19.7219 17.7152 21.2194 17.7152H29.7053C30.2306 17.7152 30.656 17.2824 30.656 16.7481V11.4869C30.656 10.9526 30.2306 10.5198 29.7053 10.5198H18.5572C13.8317 10.5198 10 14.4173 10 19.2239V45.5274C10 46.0618 10.4255 46.4946 10.9508 46.4946H29.7053C30.2306 46.4946 30.656 46.0618 30.656 45.5274V40.2662C30.656 39.7319 30.2306 39.2991 29.7053 39.2991Z" fill="#EDEDED"/>
<path d="M42.667 23.7478V18.1457C42.667 17.8797 42.8809 17.6621 43.1424 17.6621H42.9047C42.6432 17.6621 42.4293 17.8797 42.4293 18.1457V23.7478C42.4293 24.0161 42.6432 24.2313 42.9047 24.2313H43.1424C42.8809 24.2313 42.667 24.0161 42.667 23.7478Z" fill="#EDEDED"/>
<path d="M53.4823 27.5678C55.429 25.9527 56.7102 23.7622 56.7102 20.0605C56.7102 13.4913 52.251 10.5198 45.1272 10.5198H35.1105C34.5852 10.5198 34.1597 10.9526 34.1597 11.4869V45.5274C34.1597 45.6749 34.1906 45.8127 34.2501 45.936C34.3641 49.3694 37.1381 51.9999 40.5443 51.9999C43.7271 51.9999 46.3584 49.6015 46.7816 46.4825C54.3642 46.2117 57.7371 41.729 57.7371 36.1705C57.7371 31.7386 55.9948 29.1854 53.4823 27.5678ZM42.4293 18.1456C42.4293 17.8796 42.6432 17.662 42.9047 17.662H44.0504C47.6896 17.662 48.1507 19.0184 48.1507 21.0518C48.1507 22.928 47.3306 24.2312 44.7183 24.2312H42.9047C42.6432 24.2312 42.4293 24.0161 42.4293 23.7477V18.1456ZM45.1272 39.2991H43.1424C42.8809 39.2991 42.667 39.0815 42.667 38.8156V31.9103C42.667 31.6443 42.8809 31.4267 43.1424 31.4267H44.6161C47.9986 31.4267 49.1253 32.7299 49.1253 35.3363C49.1253 37.7348 48.0485 39.2991 45.1272 39.2991Z" fill="#EDEDED"/>
<path d="M101.032 24.3208C97.4424 22.9668 96.2634 22.459 96.2634 20.3217C96.2634 18.4962 97.0834 17.193 99.237 17.193L106.772 17.239L107.856 17.2462C108.381 17.2462 108.812 16.8134 108.812 16.2791V10.9671C108.812 10.4328 108.386 10 107.861 10H98.7236C91.2931 10 87.7561 14.4295 87.7561 20.3749C87.7561 26.3203 90.2662 29.1177 96.4179 31.5162C100.62 33.1845 101.493 34.1226 101.493 36.2092C101.493 36.2576 101.493 36.3083 101.488 36.3615C101.414 37.8799 100.171 39.0743 98.676 39.1323C97.9368 39.1614 97.2403 39.1855 97.0002 39.1855H88.203C87.6777 39.1855 87.2522 39.6183 87.2522 40.1527V45.5928C87.2522 49.1325 90.0713 52 93.5512 52C96.5819 52 99.1134 49.824 99.7124 46.9226H101.276C107.219 46.9226 110 41.6034 110 36.2745C110 30.1235 107.694 26.8232 101.032 24.3208ZM96.8505 46.9226C96.8909 46.9153 96.9337 46.9105 96.9788 46.9153C97.0074 46.9177 97.0383 46.9202 97.0692 46.9226H96.8505Z" fill="#EDEDED"/>
<path d="M97.0691 46.9224H96.8505C96.8909 46.9152 96.9337 46.9105 96.9788 46.9152C97.0073 46.9176 97.0382 46.92 97.0691 46.9224Z" fill="#EDEDED"/>
<path d="M97.0691 46.9224H96.8505C96.8909 46.9152 96.9337 46.9105 96.9788 46.9152C97.0073 46.9176 97.0382 46.92 97.0691 46.9224Z" fill="#EDEDED"/>
<path d="M97.0691 46.9224H96.8505C96.8909 46.9152 96.9337 46.9105 96.9788 46.9152C97.0073 46.9176 97.0382 46.92 97.0691 46.9224Z" fill="#EDEDED"/>
</g>
<defs>
<clipPath id="clip0_57_2059">
<rect width="100" height="42" fill="white" transform="translate(10 10)"/>
</clipPath>
</defs>
</svg>
