<svg width="14" height="14" viewBox="0 0 14 14" fill="none" xmlns="http://www.w3.org/2000/svg">
<path d="M7 1.4C5.51479 1.4 4.09041 1.99 3.0402 3.0402C1.99 4.09041 1.4 5.51479 1.4 7C1.4 8.48521 1.99 9.90959 3.0402 10.9598C4.09041 12.01 5.51479 12.6 7 12.6C8.48521 12.6 9.90959 12.01 10.9598 10.9598C12.01 9.90959 12.6 8.48521 12.6 7C12.6 5.51479 12.01 4.09041 10.9598 3.0402C9.90959 1.99 8.48521 1.4 7 1.4ZM0 7C0 3.1339 3.1339 0 7 0C10.8661 0 14 3.1339 14 7C14 10.8661 10.8661 14 7 14C3.1339 14 0 10.8661 0 7Z" fill="#07011D"/>
<path d="M9.8 6.29999H6.3H4.2C4.01435 6.29999 3.8363 6.37374 3.70503 6.50501C3.57375 6.63629 3.5 6.81434 3.5 6.99999C3.5 7.18564 3.57375 7.36369 3.70503 7.49496C3.8363 7.62624 4.01435 7.69999 4.2 7.69999H6.3H9.8C9.98565 7.69999 10.1637 7.62624 10.295 7.49496C10.4263 7.36369 10.5 7.18564 10.5 6.99999C10.5 6.81434 10.4263 6.63629 10.295 6.50501C10.1637 6.37374 9.98565 6.29999 9.8 6.29999Z" fill="#07011D"/>
</svg>
